<?xml version="1.0" encoding="UTF-8" standalone="no"?><!DOCTYPE svg PUBLIC "-//W3C//DTD SVG 1.1//EN" "http://www.w3.org/Graphics/SVG/1.1/DTD/svg11.dtd"><svg width="100%" height="100%" viewBox="0 0 3763 1509" version="1.1" xmlns="http://www.w3.org/2000/svg" xmlns:xlink="http://www.w3.org/1999/xlink" xml:space="preserve" xmlns:serif="http://www.serif.com/" style="fill-rule:evenodd;clip-rule:evenodd;stroke-linejoin:round;stroke-miterlimit:2;"><rect id="Exasol_Logo_2025_Dark" x="1.378" y="0" width="3758.47" height="1506.85" style="fill:none;"/><g><path d="M188.278,186.929l0,795.192l493.925,-0l0,-124.458l-349.492,-0l0,-213.775l267.742,-0l0,-124.234l-267.742,0l0,-208.5l331.575,0l0,-124.225l-476.008,0Z" style="fill:#002e40;fill-rule:nonzero;"/><path d="M1695.31,873.049c93.141,3.225 171.275,-69.658 174.516,-162.808c0.225,-4.2 0.225,-8.417 0,-12.625c1.275,-93.708 -73.658,-170.717 -167.366,-171.992l-7.15,0c-92.509,-3.091 -170.017,69.375 -173.134,161.892l0,10.1c-2.7,94.183 71.459,172.733 165.65,175.433l7.484,0Zm175.666,28.017c-37.658,61.767 -119.866,93.225 -190.133,93.225c-152.7,-0 -287.033,-114.808 -287.033,-295.525c-6.2,-156.117 115.333,-287.708 271.45,-293.908c0.141,-0 0.283,-0.009 0.425,-0.017l15.158,-0c68.892,-0 151.325,27.792 190.133,91.85l0,-80.133l123.534,-0l-0,565.566l-123.534,0l0,-81.058Z" style="fill:#002e40;fill-rule:nonzero;"/><path d="M2170.86,811.968c42.409,39.5 97.759,62.192 155.684,63.834c40.191,-0 74.858,-17.909 74.858,-51.667c-0,-84.958 -277.617,-73.933 -277.617,-257.408c0,-106.542 95.067,-168.084 218.375,-168.084c128.825,0 191.509,64.984 191.509,64.984l-52.584,105.166c-39.491,-32.283 -89.066,-49.675 -140.075,-49.133c-36.966,0 -72.791,15.608 -72.791,51.433c-0,80.6 277.85,70.492 277.85,254.192c-0,95.3 -82.892,171.3 -218.609,171.3c-81.883,1.575 -161.233,-28.442 -221.583,-83.808l64.983,-100.809Z" style="fill:#002e40;fill-rule:nonzero;"/><path d="M2932.3,875.804c93.841,-0.25 169.716,-76.533 169.458,-170.383l0,-7.808c4.892,-93.717 -67.125,-173.65 -160.85,-178.534c-93.717,-4.883 -173.65,67.134 -178.533,160.859l-0,17.675c-4.55,93.458 67.3,173.016 160.741,177.966l8.267,0m0,-477.166c174.742,-0 314.808,124.233 314.808,298.516c0,174.284 -140.066,298.509 -313.658,298.509c-173.6,-0 -314.592,-123.075 -314.592,-298.509c0,-175.433 139.842,-298.516 313.442,-298.516" style="fill:#002e40;fill-rule:nonzero;"/><path d="M3352.28,186.929l141.217,0l-0,597.025c-0,62.684 21.358,78.3 58.325,78.3c11.025,0 21.125,-1.15 21.125,-1.15l-0,124.459c-15.217,2.108 -30.558,3.183 -45.925,3.216c-78.3,0 -175.892,-19.975 -175.892,-183.7l1.15,-618.15Z" style="fill:#002e40;fill-rule:nonzero;"/><path d="M758.436,982.121l217.458,-283.817l-216.542,-282.208l167.167,-0l216.542,282.208l-217.684,283.817l-166.941,-0Z" style="fill:#5fc33b;fill-rule:nonzero;"/><path d="M1089.1,557.545l83.583,109.075l191.283,-250.758l-167.4,-0.225l-107.466,141.908Z" style="fill:#002e40;fill-rule:nonzero;"/><path d="M1089.1,840.212l83.583,-109.075l191.283,250.75l-167.4,0.233l-107.466,-141.908Z" style="fill:#002e40;fill-rule:nonzero;"/><g><path d="M225.522,1283.26l0,-116.205l-37.244,-0l0,-14.684l91.798,-0l-0,14.684l-37.147,-0l-0,116.205l-17.407,0Z" style="fill:#002e40;fill-rule:nonzero;"/><path d="M307.44,1283.26l-0,-130.889l16.142,-0l0,50.761c2.918,-3.825 7.099,-7.439 12.545,-10.843c5.445,-3.403 12.382,-5.105 20.81,-5.105c10.632,-0 18.265,3.047 22.9,9.141c4.636,6.094 6.953,14.716 6.953,25.866l0,61.069l-16.239,0l-0,-58.832c-0,-4.538 -0.47,-8.59 -1.41,-12.155c-0.94,-3.566 -2.674,-6.37 -5.203,-8.412c-2.528,-2.042 -6.159,-3.063 -10.891,-3.063c-7.066,-0 -12.998,1.605 -17.796,4.814c-4.797,3.209 -8.654,6.726 -11.571,10.55l-0,67.098l-16.24,0Z" style="fill:#002e40;fill-rule:nonzero;"/><path d="M466.569,1285.01c-10.308,-0 -18.752,-2.156 -25.332,-6.467c-6.58,-4.311 -11.459,-10.178 -14.635,-17.601c-3.177,-7.423 -4.765,-15.77 -4.765,-25.04c-0,-9.66 1.539,-18.168 4.619,-25.527c3.079,-7.358 7.779,-13.111 14.1,-17.26c6.321,-4.149 14.343,-6.224 24.068,-6.224c12.901,0 23.014,3.89 30.34,11.669c7.325,7.78 10.988,18.963 10.988,33.549c0,0.973 -0.032,2.123 -0.097,3.452c-0.065,1.329 -0.162,2.286 -0.292,2.869l-67.487,0c0.065,6.159 1.054,11.815 2.966,16.969c1.913,5.154 4.944,9.287 9.093,12.399c4.149,3.111 9.627,4.667 16.434,4.667c7.26,0 12.933,-1.702 17.017,-5.105c4.084,-3.404 6.224,-8.314 6.418,-14.732l16.045,-0c-0.194,6.677 -1.912,12.431 -5.154,17.26c-3.241,4.83 -7.779,8.558 -13.614,11.183c-5.834,2.626 -12.738,3.939 -20.712,3.939Zm-28.395,-58.444l51.733,0c-0.194,-8.816 -2.496,-15.558 -6.904,-20.226c-4.409,-4.668 -10.535,-7.002 -18.379,-7.002c-7.909,0 -14.117,2.318 -18.622,6.953c-4.506,4.635 -7.115,11.394 -7.828,20.275Z" style="fill:#002e40;fill-rule:nonzero;"/><path d="M593.938,1283.26l-0,-130.889l19.157,-0l46.579,77.114l-7.099,-0l45.705,-77.114l18.67,-0l0,130.889l-17.212,0l0,-116.303l6.029,0l-44.44,75.169l-11.474,0l-45.121,-75.169l6.029,0l-0,116.303l-16.823,0Z" style="fill:#002e40;fill-rule:nonzero;"/><path d="M798.576,1284.82c-9.27,0 -17.212,-1.961 -23.824,-5.883c-6.613,-3.922 -11.653,-9.53 -15.122,-16.823c-3.468,-7.293 -5.202,-15.964 -5.202,-26.013c-0,-10.308 1.734,-19.14 5.202,-26.499c3.469,-7.358 8.509,-13.014 15.122,-16.968c6.612,-3.955 14.554,-5.932 23.824,-5.932c9.465,-0 17.553,1.977 24.263,5.932c6.709,3.954 11.863,9.61 15.461,16.968c3.598,7.359 5.397,16.191 5.397,26.499c0,10.049 -1.799,18.72 -5.397,26.013c-3.598,7.293 -8.752,12.901 -15.461,16.823c-6.71,3.922 -14.798,5.883 -24.263,5.883Zm0,-12.933c7.002,-0 12.577,-1.54 16.726,-4.619c4.149,-3.08 7.131,-7.326 8.947,-12.739c1.815,-5.413 2.722,-11.556 2.722,-18.428c0,-7.001 -0.907,-13.257 -2.722,-18.768c-1.816,-5.51 -4.798,-9.837 -8.947,-12.982c-4.149,-3.144 -9.724,-4.716 -16.726,-4.716c-6.807,0 -12.204,1.572 -16.191,4.716c-3.987,3.145 -6.855,7.472 -8.606,12.982c-1.75,5.511 -2.625,11.767 -2.625,18.768c-0,6.872 0.875,13.015 2.625,18.428c1.751,5.413 4.619,9.659 8.606,12.739c3.987,3.079 9.384,4.619 16.191,4.619Z" style="fill:#002e40;fill-rule:nonzero;"/><path d="M912.001,1285.01c-5.316,-0 -10.357,-0.584 -15.122,-1.751c-4.764,-1.167 -8.962,-3.014 -12.593,-5.543c-3.63,-2.528 -6.466,-5.85 -8.508,-9.967c-2.042,-4.117 -3.063,-9.092 -3.063,-14.927l15.656,0c-0,7.391 2.285,12.593 6.855,15.608c4.571,3.014 10.292,4.521 17.164,4.521c6.158,0 11.231,-1.183 15.218,-3.549c3.987,-2.366 5.981,-6.272 5.981,-11.718c-0,-4.667 -1.799,-8.136 -5.397,-10.405c-3.598,-2.269 -9.935,-4.473 -19.011,-6.612c-7.391,-1.751 -13.614,-3.777 -18.671,-6.078c-5.057,-2.301 -8.849,-5.219 -11.377,-8.752c-2.529,-3.533 -3.793,-7.99 -3.793,-13.371c0,-4.214 0.892,-7.925 2.674,-11.134c1.783,-3.209 4.279,-5.883 7.488,-8.023c3.209,-2.139 6.985,-3.744 11.329,-4.813c4.343,-1.07 9.043,-1.605 14.1,-1.605c4.992,0 9.676,0.584 14.052,1.751c4.376,1.167 8.233,2.982 11.572,5.445c3.338,2.464 5.98,5.64 7.925,9.53c1.945,3.89 2.917,8.557 2.917,14.003l-15.753,0c-0,-6.742 -2.01,-11.507 -6.029,-14.295c-4.02,-2.787 -8.914,-4.181 -14.684,-4.181c-5.834,-0 -10.567,1.037 -14.197,3.112c-3.631,2.074 -5.446,5.316 -5.446,9.724c-0,2.528 0.81,4.668 2.431,6.418c1.621,1.75 4.344,3.322 8.168,4.716c3.825,1.394 8.979,2.869 15.462,4.425c7.067,1.685 12.998,3.695 17.796,6.029c4.797,2.334 8.411,5.332 10.842,8.995c2.431,3.663 3.647,8.347 3.647,14.052c-0,4.927 -0.956,9.189 -2.869,12.787c-1.912,3.598 -4.57,6.548 -7.974,8.849c-3.403,2.302 -7.39,4.003 -11.961,5.105c-4.57,1.103 -9.513,1.654 -14.829,1.654Z" style="fill:#002e40;fill-rule:nonzero;"/><path d="M1015.6,1283.26c-7.65,0 -13.517,-1.215 -17.601,-3.646c-4.085,-2.431 -6.888,-5.932 -8.412,-10.503c-1.523,-4.57 -2.285,-10.064 -2.285,-16.482l-0,-50.956l-15.851,0l0,-13.128l15.851,0l-0,-21.685l16.142,0l0,21.685l23.339,0l-0,13.128l-23.339,0l0,50.178c0,5.899 0.762,10.421 2.285,13.565c1.524,3.144 5.171,4.716 10.94,4.716l10.308,0l0,13.128l-11.377,0Z" style="fill:#002e40;fill-rule:nonzero;"/><path d="M1108.74,1283.26l0,-130.889l51.345,-0c8.622,-0 16.482,1.523 23.581,4.57c7.099,3.047 12.755,7.683 16.969,13.906c4.214,6.224 6.321,14.165 6.321,23.825c-0,9.53 -2.107,17.406 -6.321,23.63c-4.214,6.223 -9.87,10.842 -16.969,13.857c-7.099,3.014 -14.959,4.522 -23.581,4.522l-24.019,-0l-0,46.579l-27.326,0Zm27.326,-68.556l21.49,-0c6.354,-0 11.491,-1.686 15.413,-5.057c3.922,-3.371 5.884,-8.363 5.884,-14.975c-0,-6.872 -2.01,-11.961 -6.03,-15.268c-4.019,-3.306 -9.108,-4.959 -15.267,-4.959l-21.49,0l-0,40.259Z" style="fill:#5fc33b;fill-rule:nonzero;"/><path d="M1274,1284.82c-9.594,0 -18.006,-1.912 -25.234,-5.737c-7.229,-3.825 -12.82,-9.368 -16.775,-16.629c-3.954,-7.261 -5.932,-16.045 -5.932,-26.353c0,-10.502 1.978,-19.432 5.932,-26.79c3.955,-7.358 9.546,-12.966 16.775,-16.823c7.228,-3.858 15.64,-5.786 25.234,-5.786c9.725,-0 18.201,1.928 25.429,5.786c7.229,3.857 12.853,9.465 16.872,16.823c4.019,7.358 6.029,16.288 6.029,26.79c0,10.308 -2.01,19.092 -6.029,26.353c-4.019,7.261 -9.643,12.804 -16.872,16.629c-7.228,3.825 -15.704,5.737 -25.429,5.737Zm0,-19.643c5.64,-0 10.065,-1.313 13.274,-3.938c3.209,-2.626 5.478,-6.143 6.807,-10.551c1.329,-4.409 1.993,-9.271 1.993,-14.587c0,-5.445 -0.664,-10.405 -1.993,-14.878c-1.329,-4.473 -3.598,-8.039 -6.807,-10.697c-3.209,-2.658 -7.634,-3.987 -13.274,-3.987c-5.51,0 -9.837,1.329 -12.982,3.987c-3.144,2.658 -5.364,6.224 -6.661,10.697c-1.296,4.473 -1.945,9.433 -1.945,14.878c0,5.316 0.649,10.178 1.945,14.587c1.297,4.408 3.517,7.925 6.661,10.551c3.145,2.625 7.472,3.938 12.982,3.938Z" style="fill:#5fc33b;fill-rule:nonzero;"/><path d="M1369.53,1283.26l-29.854,-94.909l26.159,-0l18.281,67l18.282,-67l27.034,-0l18.67,66.903l17.99,-66.903l24.409,-0l-29.854,94.909l-26.353,0l-19.157,-68.265l-19.351,68.265l-26.256,0Z" style="fill:#5fc33b;fill-rule:nonzero;"/><path d="M1556.37,1285.01c-10.567,-0 -19.449,-1.961 -26.645,-5.884c-7.196,-3.922 -12.641,-9.578 -16.336,-16.969c-3.696,-7.39 -5.543,-16.272 -5.543,-26.644c-0,-10.049 1.799,-18.703 5.397,-25.964c3.598,-7.261 8.881,-12.852 15.85,-16.775c6.969,-3.922 15.543,-5.883 25.721,-5.883c14.133,0 25.3,4.133 33.5,12.399c8.201,8.265 12.302,20.048 12.302,35.348c-0,0.778 -0.033,1.831 -0.098,3.16c-0.064,1.329 -0.162,2.35 -0.291,3.063l-66.612,0c0.13,4.473 0.956,8.655 2.48,12.545c1.523,3.889 3.938,7.017 7.244,9.384c3.307,2.366 7.65,3.549 13.031,3.549c5.575,-0 10.049,-1.216 13.42,-3.647c3.371,-2.431 5.089,-6.045 5.153,-10.842l25.381,-0c-0.324,7.39 -2.35,13.549 -6.078,18.476c-3.727,4.927 -8.816,8.606 -15.267,11.037c-6.45,2.431 -13.987,3.647 -22.609,3.647Zm-22.463,-60.486l41.134,0c-0.195,-6.612 -2.156,-11.555 -5.883,-14.829c-3.728,-3.274 -8.509,-4.911 -14.344,-4.911c-5.964,-0 -10.842,1.686 -14.635,5.057c-3.792,3.371 -5.883,8.265 -6.272,14.683Z" style="fill:#5fc33b;fill-rule:nonzero;"/><path d="M1633.43,1283.26l-0,-94.909l24.699,-0l0.487,16.434c2.463,-5.705 6.158,-10.081 11.085,-13.128c4.927,-3.047 10.891,-4.57 17.893,-4.57l1.945,-0l-0,21.685l-2.431,-0c-3.825,-0 -7.488,0.34 -10.989,1.021c-3.5,0.681 -6.677,1.848 -9.53,3.501c-2.852,1.653 -5.315,3.938 -7.39,6.855l-0,63.111l-25.769,0Z" style="fill:#5fc33b;fill-rule:nonzero;"/><path d="M1721.67,1283.26l0,-75.072l-15.753,0l-0,-19.837l15.753,-0l0,-3.015c0,-5.705 0.551,-10.648 1.653,-14.829c1.102,-4.182 2.998,-7.601 5.689,-10.259c2.69,-2.658 6.402,-4.636 11.134,-5.932c4.733,-1.297 10.729,-1.945 17.99,-1.945l9.433,-0l-0,18.671l-8.558,-0c-4.927,-0 -8.087,1.134 -9.481,3.403c-1.394,2.269 -2.091,5.9 -2.091,10.891l0,3.015l20.227,-0l0,19.837l-20.227,0l0,75.072l-25.769,0Z" style="fill:#5fc33b;fill-rule:nonzero;"/><path d="M1823.23,1284.53c-9.595,0 -17.018,-2.966 -22.269,-8.897c-5.251,-5.932 -7.877,-14.376 -7.877,-25.332l0,-61.944l25.77,-0l-0,58.832c-0,3.241 0.47,6.11 1.41,8.606c0.94,2.496 2.496,4.425 4.668,5.786c2.171,1.361 5.04,2.042 8.606,2.042c5.186,0 9.61,-1.151 13.273,-3.452c3.663,-2.301 6.856,-5.105 9.579,-8.412l-0,-63.402l25.769,-0l0,94.909l-24.894,0l-0.389,-14.295c-3.177,4.02 -7.52,7.618 -13.031,10.794c-5.51,3.177 -12.382,4.765 -20.615,4.765Z" style="fill:#5fc33b;fill-rule:nonzero;"/><path d="M1955.32,1283.26c-9.66,0 -17.115,-1.15 -22.366,-3.452c-5.251,-2.301 -8.914,-5.867 -10.988,-10.697c-2.075,-4.829 -3.112,-11.134 -3.112,-18.913l-0,-97.827l25.672,-0l-0,96.271c-0,4.991 0.681,8.654 2.042,10.988c1.361,2.334 4.538,3.501 9.53,3.501l5.932,-0l-0,20.129l-6.71,0Z" style="fill:#5fc33b;fill-rule:nonzero;"/><path d="M2026,1283.26l49.011,-130.889l18.476,-0l48.33,130.889l-18.087,0l-12.447,-36.66l-54.262,-0l-13.031,36.66l-17.99,0Zm35.786,-51.344l44.537,-0l-22.171,-62.139l-22.366,62.139Z" style="fill:#002e40;fill-rule:nonzero;"/><path d="M2169.38,1283.26l-0,-94.715l15.559,0l0.583,14.587c2.917,-3.825 7.099,-7.439 12.544,-10.843c5.446,-3.403 12.415,-5.105 20.908,-5.105c10.372,-0 17.925,3.063 22.657,9.189c4.733,6.127 7.099,14.733 7.099,25.818l0,61.069l-16.24,0l0,-58.735c0,-4.603 -0.486,-8.687 -1.458,-12.252c-0.973,-3.566 -2.707,-6.37 -5.203,-8.412c-2.496,-2.042 -6.11,-3.063 -10.842,-3.063c-7.067,-0 -12.998,1.605 -17.796,4.814c-4.797,3.209 -8.654,6.726 -11.572,10.55l0,67.098l-16.239,0Z" style="fill:#002e40;fill-rule:nonzero;"/><path d="M2313.53,1285.01c-5.446,-0 -10.421,-1.038 -14.927,-3.112c-4.505,-2.075 -8.103,-5.138 -10.794,-9.19c-2.69,-4.051 -4.035,-9.059 -4.035,-15.024c-0,-8.492 2.658,-14.943 7.973,-19.351c5.316,-4.408 12.837,-7.407 22.561,-8.995c9.724,-1.588 21.102,-2.447 34.132,-2.577l0,-6.613c0,-8.103 -2.009,-13.662 -6.029,-16.677c-4.019,-3.014 -9.108,-4.522 -15.267,-4.522c-6.548,0 -12.058,1.654 -16.531,4.96c-4.474,3.306 -6.71,8.525 -6.71,15.656l-15.754,-0c0,-7.78 1.67,-14.068 5.009,-18.865c3.338,-4.798 7.941,-8.298 13.808,-10.503c5.867,-2.204 12.593,-3.306 20.178,-3.306c4.862,0 9.514,0.454 13.954,1.362c4.441,0.907 8.428,2.56 11.961,4.959c3.533,2.399 6.337,5.754 8.412,10.065c2.074,4.311 3.112,9.87 3.112,16.677l-0,63.305l-15.17,0l-0.681,-14.392c-4.344,4.862 -9.384,8.768 -15.121,11.718c-5.738,2.95 -12.431,4.425 -20.081,4.425Zm4.279,-12.448c6.483,0 12.317,-1.523 17.503,-4.57c5.187,-3.047 9.53,-6.904 13.031,-11.572l0,-19.254c-17.244,0.194 -29.611,1.815 -37.098,4.862c-7.488,3.047 -11.232,8.039 -11.232,14.976c0,4.732 1.507,8.508 4.522,11.328c3.014,2.82 7.439,4.23 13.274,4.23Z" style="fill:#002e40;fill-rule:nonzero;"/><path d="M2432.11,1283.26c-7.714,0 -13.614,-1.215 -17.698,-3.646c-4.084,-2.431 -6.872,-5.932 -8.363,-10.503c-1.491,-4.57 -2.236,-10.064 -2.236,-16.482l-0,-100.258l16.142,-0l-0,99.48c-0,5.899 0.762,10.405 2.285,13.516c1.524,3.112 5.17,4.668 10.94,4.668l4.376,0l-0,13.225l-5.446,0Z" style="fill:#002e40;fill-rule:nonzero;"/><path d="M2461.22,1318.08l-0,-13.419l7.974,-0c3.695,-0 6.823,-0.989 9.384,-2.966c2.561,-1.977 4.749,-5.268 6.564,-9.87l3.695,-8.558l-37.828,-94.715l17.212,0l29.271,77.503l27.033,-77.503l16.532,0l-35.591,94.715l-4.474,11.475c-2.204,5.64 -4.554,10.178 -7.05,13.614c-2.496,3.436 -5.559,5.916 -9.189,7.439c-3.631,1.524 -8.266,2.285 -13.906,2.285l-9.627,0Z" style="fill:#002e40;fill-rule:nonzero;"/><path d="M2599.25,1283.26c-7.65,0 -13.517,-1.215 -17.601,-3.646c-4.084,-2.431 -6.888,-5.932 -8.412,-10.503c-1.523,-4.57 -2.285,-10.064 -2.285,-16.482l0,-50.956l-15.851,0l0,-13.128l15.851,0l0,-21.685l16.142,0l0,21.685l23.339,0l-0,13.128l-23.339,0l0,50.178c0,5.899 0.762,10.421 2.286,13.565c1.523,3.144 5.17,4.716 10.94,4.716l10.307,0l0,13.128l-11.377,0Z" style="fill:#002e40;fill-rule:nonzero;"/><path d="M2641.98,1283.26l-0,-94.715l16.239,0l0,94.715l-16.239,0Zm8.071,-112.51c-3.047,-0 -5.495,-0.892 -7.342,-2.674c-1.848,-1.783 -2.772,-4.036 -2.772,-6.759c0,-2.723 0.924,-4.975 2.772,-6.758c1.847,-1.783 4.295,-2.674 7.342,-2.674c3.047,-0 5.51,0.891 7.39,2.674c1.88,1.783 2.82,4.035 2.82,6.758c0,2.723 -0.94,4.976 -2.82,6.759c-1.88,1.782 -4.343,2.674 -7.39,2.674Z" style="fill:#002e40;fill-rule:nonzero;"/><path d="M2737.99,1284.92c-8.557,0 -16.142,-1.799 -22.754,-5.397c-6.613,-3.598 -11.783,-9.011 -15.511,-16.239c-3.727,-7.229 -5.591,-16.288 -5.591,-27.18c-0,-10.891 1.831,-19.983 5.494,-27.276c3.663,-7.294 8.784,-12.772 15.364,-16.435c6.581,-3.662 14.247,-5.494 22.998,-5.494c7.326,0 13.922,1.2 19.789,3.598c5.867,2.399 10.551,6.013 14.052,10.843c3.501,4.83 5.348,10.94 5.543,18.33l-16.045,0c-0.389,-6.094 -2.593,-10.891 -6.613,-14.392c-4.019,-3.501 -9.497,-5.251 -16.434,-5.251c-9.205,0 -16.077,3.16 -20.615,9.481c-4.538,6.321 -6.807,15.186 -6.807,26.596c-0,7.585 1.004,14.019 3.014,19.303c2.01,5.284 5.057,9.335 9.141,12.155c4.084,2.82 9.173,4.231 15.267,4.231c6.937,-0 12.577,-1.799 16.921,-5.397c4.343,-3.598 6.612,-8.866 6.807,-15.802l16.045,-0c-0.195,7.649 -2.059,14.019 -5.592,19.108c-3.533,5.089 -8.298,8.898 -14.295,11.426c-5.996,2.528 -12.722,3.792 -20.178,3.792Z" style="fill:#002e40;fill-rule:nonzero;"/><path d="M2846.36,1285.01c-5.316,-0 -10.356,-0.584 -15.121,-1.751c-4.765,-1.167 -8.963,-3.014 -12.593,-5.543c-3.63,-2.528 -6.467,-5.85 -8.509,-9.967c-2.042,-4.117 -3.063,-9.092 -3.063,-14.927l15.656,0c0,7.391 2.285,12.593 6.856,15.608c4.57,3.014 10.291,4.521 17.163,4.521c6.159,0 11.232,-1.183 15.219,-3.549c3.987,-2.366 5.98,-6.272 5.98,-11.718c0,-4.667 -1.799,-8.136 -5.397,-10.405c-3.598,-2.269 -9.935,-4.473 -19.011,-6.612c-7.39,-1.751 -13.614,-3.777 -18.67,-6.078c-5.057,-2.301 -8.85,-5.219 -11.378,-8.752c-2.528,-3.533 -3.792,-7.99 -3.792,-13.371c-0,-4.214 0.891,-7.925 2.674,-11.134c1.783,-3.209 4.278,-5.883 7.488,-8.023c3.209,-2.139 6.985,-3.744 11.328,-4.813c4.344,-1.07 9.044,-1.605 14.101,-1.605c4.991,0 9.675,0.584 14.051,1.751c4.376,1.167 8.233,2.982 11.572,5.445c3.339,2.464 5.981,5.64 7.925,9.53c1.945,3.89 2.918,8.557 2.918,14.003l-15.754,0c0,-6.742 -2.009,-11.507 -6.029,-14.295c-4.019,-2.787 -8.914,-4.181 -14.683,-4.181c-5.835,-0 -10.567,1.037 -14.198,3.112c-3.63,2.074 -5.446,5.316 -5.446,9.724c0,2.528 0.811,4.668 2.432,6.418c1.62,1.75 4.343,3.322 8.168,4.716c3.825,1.394 8.979,2.869 15.462,4.425c7.066,1.685 12.998,3.695 17.795,6.029c4.797,2.334 8.412,5.332 10.843,8.995c2.431,3.663 3.646,8.347 3.646,14.052c0,4.927 -0.956,9.189 -2.868,12.787c-1.913,3.598 -4.571,6.548 -7.974,8.849c-3.404,2.302 -7.391,4.003 -11.961,5.105c-4.571,1.103 -9.514,1.654 -14.83,1.654Z" style="fill:#002e40;fill-rule:nonzero;"/><path d="M2971.4,1283.26l-0,-130.889l83.531,-0l0,14.586l-66.028,0l0,41.718l60.777,-0l0,14.392l-60.777,-0l0,45.607l66.028,-0l0,14.586l-83.531,0Z" style="fill:#002e40;fill-rule:nonzero;"/><path d="M3090.66,1283.26l-0,-94.715l15.559,0l0.583,14.587c2.917,-3.825 7.099,-7.439 12.544,-10.843c5.446,-3.403 12.415,-5.105 20.908,-5.105c10.372,-0 17.925,3.063 22.657,9.189c4.733,6.127 7.099,14.733 7.099,25.818l0,61.069l-16.24,0l0,-58.735c0,-4.603 -0.486,-8.687 -1.458,-12.252c-0.973,-3.566 -2.707,-6.37 -5.203,-8.412c-2.496,-2.042 -6.11,-3.063 -10.842,-3.063c-7.067,-0 -12.999,1.605 -17.796,4.814c-4.797,3.209 -8.654,6.726 -11.572,10.55l0,67.098l-16.239,0Z" style="fill:#002e40;fill-rule:nonzero;"/><path d="M3243.37,1319.92c-10.243,-0 -18.427,-1.167 -24.554,-3.501c-6.126,-2.334 -10.55,-5.445 -13.273,-9.335c-2.723,-3.89 -4.085,-8.104 -4.085,-12.642c0,-5.51 2.351,-10.405 7.051,-14.684c4.7,-4.278 11.944,-7.293 21.733,-9.043l3.112,-5.349l11.961,0c15.559,0 26.677,2.059 33.355,6.175c6.677,4.117 10.016,10.486 10.016,19.109c-0,8.557 -3.809,15.575 -11.426,21.053c-7.618,5.478 -18.914,8.217 -33.89,8.217Zm-0.389,-11.767c11.021,0 18.784,-1.555 23.29,-4.667c4.506,-3.112 6.758,-6.969 6.758,-11.572c0,-2.723 -0.761,-5.073 -2.285,-7.05c-1.523,-1.978 -4.343,-3.517 -8.46,-4.619c-4.117,-1.102 -9.967,-1.653 -17.552,-1.653l-14.392,-0c-4.409,1.102 -7.812,2.982 -10.211,5.64c-2.398,2.658 -3.598,5.737 -3.598,9.238c0,3.889 2.042,7.309 6.127,10.259c4.084,2.95 10.858,4.424 20.323,4.424Zm-12.933,-30.437c-6.159,-0.648 -11.005,-1.928 -14.538,-3.841c-3.533,-1.912 -6.045,-4.052 -7.536,-6.418c-1.491,-2.366 -2.237,-4.651 -2.237,-6.855c0,-3.177 1.281,-6.175 3.841,-8.995c2.561,-2.82 6.759,-5.138 12.593,-6.953l8.071,5.056c-3.435,0.973 -6.158,2.221 -8.168,3.744c-2.01,1.524 -3.014,3.225 -3.014,5.105c-0,1.297 0.599,2.448 1.799,3.453c1.199,1.004 3.241,1.815 6.126,2.431c2.885,0.616 6.888,0.923 12.009,0.923l-8.946,12.35Zm12.155,-25.088c-7.779,-0 -14.375,-1.508 -19.789,-4.522c-5.413,-3.015 -9.513,-6.969 -12.301,-11.864c-2.787,-4.894 -4.181,-10.194 -4.181,-15.899c-0,-6.029 1.41,-11.507 4.23,-16.434c2.82,-4.927 6.969,-8.849 12.447,-11.767c5.478,-2.917 12.171,-4.376 20.081,-4.376c8.103,0 14.845,1.459 20.226,4.376c5.381,2.918 9.4,6.84 12.058,11.767c2.658,4.927 3.987,10.405 3.987,16.434c0,5.834 -1.345,11.199 -4.035,16.094c-2.691,4.894 -6.759,8.816 -12.204,11.766c-5.446,2.95 -12.285,4.425 -20.519,4.425Zm-0.097,-11.086c6.224,-0 11.361,-1.783 15.413,-5.348c4.052,-3.566 6.078,-8.85 6.078,-15.851c-0,-7.326 -1.913,-12.755 -5.737,-16.288c-3.825,-3.534 -8.882,-5.3 -15.17,-5.3c-6.159,-0 -11.264,1.815 -15.316,5.446c-4.052,3.63 -6.078,8.978 -6.078,16.045c0,7.131 2.091,12.463 6.272,15.996c4.182,3.533 9.028,5.3 14.538,5.3Zm24.797,-43.371l-6.612,-6.126c2.787,-6.094 6.434,-10.243 10.939,-12.447c4.506,-2.204 10.324,-3.404 17.456,-3.598l-0,13.711c-4.538,0 -8.704,0.47 -12.496,1.41c-3.793,0.94 -6.888,3.29 -9.287,7.05Z" style="fill:#002e40;fill-rule:nonzero;"/><path d="M3316.83,1283.26l-0,-94.715l16.239,0l0,94.715l-16.239,0Zm8.071,-112.51c-3.047,-0 -5.494,-0.892 -7.342,-2.674c-1.847,-1.783 -2.771,-4.036 -2.771,-6.759c-0,-2.723 0.924,-4.975 2.771,-6.758c1.848,-1.783 4.295,-2.674 7.342,-2.674c3.047,-0 5.51,0.891 7.39,2.674c1.881,1.783 2.821,4.035 2.821,6.758c-0,2.723 -0.94,4.976 -2.821,6.759c-1.88,1.782 -4.343,2.674 -7.39,2.674Z" style="fill:#002e40;fill-rule:nonzero;"/><path d="M3374.33,1283.26l0,-94.715l15.559,0l0.584,14.587c2.917,-3.825 7.099,-7.439 12.544,-10.843c5.446,-3.403 12.415,-5.105 20.907,-5.105c10.373,-0 17.926,3.063 22.658,9.189c4.733,6.127 7.099,14.733 7.099,25.818l-0,61.069l-16.24,0l0,-58.735c0,-4.603 -0.486,-8.687 -1.458,-12.252c-0.973,-3.566 -2.707,-6.37 -5.203,-8.412c-2.496,-2.042 -6.11,-3.063 -10.843,-3.063c-7.066,-0 -12.998,1.605 -17.795,4.814c-4.797,3.209 -8.655,6.726 -11.572,10.55l0,67.098l-16.24,0Z" style="fill:#002e40;fill-rule:nonzero;"/><path d="M3533.46,1285.01c-10.308,-0 -18.752,-2.156 -25.332,-6.467c-6.58,-4.311 -11.458,-10.178 -14.635,-17.601c-3.176,-7.423 -4.765,-15.77 -4.765,-25.04c0,-9.66 1.54,-18.168 4.619,-25.527c3.08,-7.358 7.78,-13.111 14.101,-17.26c6.32,-4.149 14.343,-6.224 24.067,-6.224c12.901,0 23.015,3.89 30.34,11.669c7.326,7.78 10.989,18.963 10.989,33.549c-0,0.973 -0.033,2.123 -0.098,3.452c-0.064,1.329 -0.162,2.286 -0.291,2.869l-67.487,0c0.065,6.159 1.053,11.815 2.966,16.969c1.912,5.154 4.943,9.287 9.092,12.399c4.149,3.111 9.627,4.667 16.434,4.667c7.261,0 12.934,-1.702 17.018,-5.105c4.084,-3.404 6.223,-8.314 6.418,-14.732l16.045,-0c-0.195,6.677 -1.913,12.431 -5.154,17.26c-3.241,4.83 -7.779,8.558 -13.614,11.183c-5.835,2.626 -12.739,3.939 -20.713,3.939Zm-28.395,-58.444l51.734,0c-0.195,-8.816 -2.496,-15.558 -6.905,-20.226c-4.408,-4.668 -10.534,-7.002 -18.379,-7.002c-7.909,0 -14.116,2.318 -18.622,6.953c-4.505,4.635 -7.115,11.394 -7.828,20.275Z" style="fill:#002e40;fill-rule:nonzero;"/></g></g></svg>